<?xml version="1.0" standalone="no"?>
<!DOCTYPE svg PUBLIC "-//W3C//DTD SVG 20010904//EN"
 "http://www.w3.org/TR/2001/REC-SVG-20010904/DTD/svg10.dtd">
<svg version="1.0" xmlns="http://www.w3.org/2000/svg"
 width="1563.000000pt" height="1563.000000pt" viewBox="0 0 1563.000000 1563.000000"
 preserveAspectRatio="xMidYMid meet">

<g transform="translate(0.000000,1563.000000) scale(0.100000,-0.100000)"
fill="#000000" stroke="none">
<path d="M10590 6550 l0 -610 115 0 115 0 0 123 1 122 38 43 39 42 108 -165
109 -165 139 0 c109 0 136 3 129 13 -47 60 -325 452 -330 463 -3 9 47 69 139
167 79 83 149 160 157 170 13 16 5 17 -125 17 l-139 -1 -130 -140 -130 -140
-5 333 -5 333 -112 3 -113 3 0 -611z"/>
<path d="M4260 7005 l0 -115 150 0 150 0 0 -475 0 -475 125 0 125 0 0 475 0
475 150 0 150 0 0 115 0 115 -425 0 -425 0 0 -115z"/>
<path d="M7710 6530 l0 -590 288 0 c296 0 346 5 421 44 52 28 120 102 149 164
23 49 27 70 27 147 0 110 -20 160 -94 238 l-51 54 26 24 c71 65 94 195 53 304
-25 67 -94 141 -164 175 -49 25 -55 25 -352 28 l-303 3 0 -591z m588 335 c38
-32 48 -72 28 -118 -24 -58 -54 -67 -221 -67 l-145 0 0 105 0 105 154 0 c151
0 155 -1 184 -25z m-4 -430 c68 -32 92 -136 48 -206 -32 -53 -55 -59 -227 -59
l-155 0 0 140 0 140 151 0 c114 0 159 -4 183 -15z"/>
<path d="M5605 6781 c-51 -13 -98 -42 -137 -83 l-36 -39 -12 55 -11 56 -105 0
-104 0 0 -415 0 -415 115 0 115 0 0 230 c0 251 5 277 58 333 53 56 97 72 204
71 l96 0 7 70 c3 39 8 83 11 97 4 21 0 28 -18 33 -41 11 -152 15 -183 7z"/>
<path d="M6178 6779 c-164 -38 -301 -187 -330 -358 -45 -261 181 -501 471
-501 74 0 201 33 258 66 l44 25 -37 67 c-20 37 -38 68 -39 69 -1 2 -39 -7 -85
-18 -97 -25 -194 -22 -250 6 -36 18 -120 93 -120 107 0 4 132 8 294 8 l294 0
6 31 c15 76 -5 202 -43 278 -28 53 -113 145 -164 174 -87 51 -203 69 -299 46z
m165 -210 c37 -19 88 -72 103 -108 8 -18 14 -35 14 -37 0 -2 -86 -4 -191 -4
l-190 0 6 23 c10 32 56 88 95 115 37 25 124 31 163 11z"/>
<path d="M9007 6779 c-128 -30 -254 -153 -292 -287 -10 -32 -17 -92 -17 -137
0 -100 22 -178 72 -252 69 -104 179 -170 299 -180 104 -9 204 20 263 74 l27
25 12 -41 12 -41 99 0 98 0 0 415 0 415 -98 0 -99 0 -12 -41 -12 -41 -27 25
c-70 65 -209 93 -325 66z m220 -210 c80 -30 130 -130 120 -239 -11 -123 -79
-192 -197 -198 -75 -5 -124 14 -172 65 -100 105 -68 295 61 363 41 22 142 27
188 9z"/>
<path d="M6820 6492 c0 -227 3 -288 16 -333 27 -90 73 -143 164 -187 47 -23
68 -27 145 -27 88 0 106 5 197 53 4 2 14 -11 23 -27 l16 -31 99 0 100 0 0 415
0 415 -115 0 -115 0 0 -258 c0 -287 -4 -308 -69 -346 -44 -25 -134 -25 -170 1
-57 42 -61 64 -61 346 l0 257 -115 0 -115 0 0 -278z"/>
<path d="M9710 6355 l0 -415 115 0 115 0 0 263 c0 245 1 264 20 295 27 44 80
65 148 60 43 -4 59 -11 85 -37 l32 -31 3 -275 3 -275 115 0 115 0 -3 303 c-3
295 -4 303 -27 350 -77 157 -279 218 -449 135 -47 -22 -46 -22 -73 25 -8 14
-25 17 -104 17 l-95 0 0 -415z"/>
<path d="M6387 5196 c-50 -18 -76 -42 -98 -91 -73 -159 89 -317 238 -230 l43
26 0 69 0 70 -45 0 c-41 0 -45 -2 -45 -25 0 -18 5 -25 20 -25 16 0 20 -7 20
-35 0 -28 -5 -37 -30 -50 -39 -20 -66 -19 -107 6 -43 27 -63 66 -63 123 0 39
6 51 38 86 33 33 45 40 78 40 22 0 50 -7 62 -16 18 -12 26 -13 37 -4 22 18 19
28 -13 44 -44 23 -94 27 -135 12z"/>
<path d="M9670 5030 l0 -180 25 0 c23 0 25 4 25 44 0 44 24 81 38 60 4 -6 21
-32 37 -57 21 -33 37 -47 53 -47 12 0 22 3 22 6 0 3 -21 36 -46 72 l-45 65 47
48 48 49 -31 0 c-23 0 -40 -11 -77 -50 l-46 -49 0 109 0 110 -25 0 -25 0 0
-180z"/>
<path d="M5090 5025 l0 -175 25 0 24 0 3 136 3 136 99 -136 c79 -109 103 -136
122 -136 l24 0 0 175 0 175 -25 0 -24 0 -3 -132 -3 -133 -95 133 c-82 115 -98
132 -122 132 l-28 0 0 -175z"/>
<path d="M8067 5194 c-12 -12 -8 -42 6 -47 21 -8 39 8 35 29 -3 19 -29 30 -41
18z"/>
<path d="M8830 5024 l0 -176 95 4 c81 3 98 7 119 27 13 12 26 35 30 51 7 37
-11 87 -35 101 -18 9 -18 12 -4 32 23 33 19 84 -10 112 -22 23 -32 25 -110 25
l-85 0 0 -176z m168 124 c7 -7 12 -24 12 -38 0 -38 -18 -50 -77 -50 l-53 0 0
50 0 50 53 0 c29 0 58 -5 65 -12z m24 -163 c8 -18 9 -35 2 -53 -9 -25 -14 -27
-77 -30 l-67 -3 0 56 0 55 65 0 c60 0 66 -2 77 -25z"/>
<path d="M9937 5194 c-12 -12 -8 -42 6 -47 21 -8 39 8 35 29 -3 19 -29 30 -41
18z"/>
<path d="M5990 5119 c0 -22 -5 -32 -20 -36 -11 -3 -20 -12 -20 -19 0 -8 9 -14
20 -14 18 0 20 -7 20 -79 0 -44 3 -87 6 -96 8 -21 45 -35 73 -28 26 7 28 33 3
33 -33 0 -42 22 -42 97 l0 73 35 0 c28 0 35 4 35 20 0 16 -7 20 -35 20 -32 0
-35 2 -35 30 0 23 -4 30 -20 30 -16 0 -20 -7 -20 -31z"/>
<path d="M7910 5119 c0 -22 -5 -32 -20 -36 -11 -3 -20 -12 -20 -19 0 -8 9 -14
20 -14 18 0 20 -7 20 -79 0 -44 3 -87 6 -96 8 -21 45 -35 73 -28 26 7 28 33 3
33 -33 0 -42 22 -42 97 l0 73 35 0 c28 0 35 4 35 20 0 16 -7 20 -35 20 -32 0
-35 2 -35 30 0 23 -4 30 -20 30 -16 0 -20 -7 -20 -31z"/>
<path d="M5488 5067 c-14 -12 -31 -32 -37 -44 -26 -52 -1 -130 51 -159 54 -30
166 -3 137 32 -8 10 -15 12 -23 4 -18 -18 -84 -12 -106 10 -34 34 -24 40 65
40 l85 0 0 31 c0 92 -103 144 -172 86z m106 -33 c32 -32 20 -44 -44 -44 -64 0
-72 8 -40 40 24 24 63 26 84 4z"/>
<path d="M5732 5045 c18 -25 37 -51 42 -59 6 -9 -4 -30 -33 -68 -22 -30 -41
-58 -41 -61 0 -4 11 -7 24 -7 16 0 32 12 51 40 15 22 31 40 35 40 4 0 20 -18
35 -40 22 -31 34 -40 57 -40 l29 0 -46 61 -47 60 42 60 41 59 -28 0 c-21 0
-34 -9 -51 -35 -12 -19 -26 -35 -31 -35 -5 0 -19 16 -32 35 -18 26 -31 35 -52
35 l-28 0 33 -45z"/>
<path d="M6668 5067 c-14 -12 -31 -32 -37 -44 -26 -52 -1 -130 51 -159 54 -30
166 -3 137 32 -8 10 -15 12 -23 4 -18 -18 -84 -12 -106 10 -34 34 -24 40 65
40 83 0 85 1 85 24 0 39 -20 84 -45 100 -36 23 -95 20 -127 -7z m106 -33 c32
-32 20 -44 -44 -44 -64 0 -72 8 -40 40 24 24 63 26 84 4z"/>
<path d="M6900 4970 c0 -111 1 -120 19 -120 17 0 19 9 22 86 4 94 16 114 71
114 38 0 48 -24 48 -119 0 -74 2 -81 20 -81 19 0 20 7 20 95 0 88 -2 98 -25
120 -27 28 -91 35 -114 13 -11 -10 -14 -10 -18 0 -3 6 -13 12 -24 12 -18 0
-19 -8 -19 -120z"/>
<path d="M7198 5067 c-14 -12 -31 -32 -37 -44 -26 -52 -1 -130 51 -159 54 -30
166 -3 137 32 -8 10 -15 12 -23 4 -18 -18 -84 -12 -106 10 -34 34 -24 40 65
40 83 0 85 1 85 24 0 39 -20 84 -45 100 -36 23 -95 20 -127 -7z m106 -33 c32
-32 20 -44 -44 -44 -64 0 -72 8 -40 40 24 24 63 26 84 4z"/>
<path d="M7440 4970 c0 -113 1 -120 20 -120 18 0 20 7 20 78 0 90 10 111 60
121 21 4 36 14 38 24 5 23 -54 23 -80 1 -16 -16 -18 -16 -24 0 -3 9 -12 16
-20 16 -11 0 -14 -24 -14 -120z"/>
<path d="M7658 5067 c-49 -41 -62 -101 -34 -156 30 -57 106 -79 154 -45 20 14
22 14 22 0 0 -9 9 -16 20 -16 19 0 20 7 20 120 0 101 -2 120 -15 120 -9 0 -18
-7 -21 -15 -5 -13 -8 -13 -27 0 -32 22 -88 19 -119 -8z m123 -49 c35 -58 5
-128 -56 -128 -62 0 -91 75 -52 134 13 20 26 26 52 26 29 0 39 -6 56 -32z"/>
<path d="M8060 4970 l0 -120 25 0 25 0 0 120 0 120 -25 0 -25 0 0 -120z"/>
<path d="M8194 5054 c-29 -31 -34 -42 -34 -86 0 -44 4 -54 34 -84 28 -28 41
-34 78 -34 66 1 118 53 118 120 0 68 -53 119 -124 120 -32 0 -45 -6 -72 -36z
m126 -24 c24 -24 27 -86 4 -118 -22 -32 -76 -30 -103 4 -59 75 33 180 99 114z"/>
<path d="M8430 4970 c0 -111 1 -120 19 -120 17 0 19 9 22 86 4 94 16 114 71
114 38 0 48 -24 48 -119 0 -74 2 -81 20 -81 19 0 20 7 20 95 0 88 -2 98 -25
120 -27 28 -91 35 -114 13 -11 -10 -14 -10 -18 0 -3 6 -13 12 -24 12 -18 0
-19 -8 -19 -120z"/>
<path d="M9168 5067 c-49 -41 -62 -101 -34 -156 30 -57 106 -79 154 -45 20 14
22 14 22 0 0 -9 9 -16 20 -16 19 0 20 7 20 120 0 101 -2 120 -15 120 -9 0 -18
-7 -21 -15 -5 -13 -8 -13 -27 0 -32 22 -88 19 -119 -8z m123 -49 c36 -59 5
-128 -58 -128 -27 0 -37 6 -53 33 -35 55 -4 127 55 127 29 0 39 -6 56 -32z"/>
<path d="M9410 4970 c0 -111 1 -120 19 -120 17 0 19 9 22 86 4 92 17 114 65
114 43 0 54 -24 54 -116 0 -77 2 -84 20 -84 19 0 20 7 20 95 0 88 -2 98 -25
120 -27 28 -91 35 -114 13 -11 -10 -14 -10 -18 0 -3 6 -13 12 -24 12 -18 0
-19 -8 -19 -120z"/>
<path d="M9930 4970 l0 -120 25 0 25 0 0 120 0 120 -25 0 -25 0 0 -120z"/>
<path d="M10030 4970 c0 -111 1 -120 19 -120 17 0 19 9 22 86 4 94 16 114 71
114 38 0 48 -24 48 -119 0 -74 2 -81 20 -81 19 0 20 7 20 95 0 88 -2 98 -25
120 -27 28 -91 35 -114 13 -11 -10 -14 -10 -18 0 -3 6 -13 12 -24 12 -18 0
-19 -8 -19 -120z"/>
<path d="M10332 5060 c-88 -88 1 -232 114 -185 33 14 34 13 34 -11 0 -53 -83
-85 -141 -54 -16 9 -19 7 -19 -9 0 -27 29 -41 87 -41 97 0 123 45 123 215 0
107 -1 115 -19 115 -11 0 -21 -5 -23 -11 -3 -9 -9 -9 -25 0 -12 6 -40 11 -62
11 -30 0 -46 -7 -69 -30z m130 -27 c23 -20 24 -80 1 -105 -22 -24 -77 -24
-103 2 -61 61 37 162 102 103z"/>
</g>
</svg>
